<svg xmlns="http://www.w3.org/2000/svg" width="14" height="14" fill="none"><path fill="#000" d="M12.787 6.767C11.608 4.03 9.392 2.333 7 2.333S2.392 4.031 1.213 6.768a.583.583 0 0 0 0 .466C2.392 9.97 4.608 11.668 7 11.668s4.608-1.698 5.787-4.433a.582.582 0 0 0 0-.467ZM7 10.5c-1.85 0-3.6-1.336-4.608-3.5C3.4 4.836 5.15 3.5 7 3.5c1.85 0 3.6 1.336 4.608 3.5C10.6 9.164 8.85 10.5 7 10.5Zm0-5.833a2.333 2.333 0 1 0 0 4.666 2.333 2.333 0 0 0 0-4.666Zm0 3.5a1.167 1.167 0 1 1 0-2.334 1.167 1.167 0 0 1 0 2.334Z"/></svg>