<svg xmlns="http://www.w3.org/2000/svg" width="208" height="50" fill="none"><g clip-path="url(#a)"><path fill="#C8102E" d="M13.443 49.481a17.702 17.702 0 0 1-3.18-33.242 2.795 2.795 0 1 1 2.353 5.068A12.115 12.115 0 1 0 27.34 24.96a2.799 2.799 0 0 1 4.458-3.384 17.702 17.702 0 0 1-18.35 27.905"/><path fill="#43B02A" d="M35.018 10.609a2.798 2.798 0 0 0-.338-5.168 2.797 2.797 0 0 0-2.144.155c-10.128 5.013-14.38 12.033-16.167 17.038-1.967 5.516-1.45 9.894-1.426 10.078.19 1.516 1.625 2.527 3.133 2.337a2.765 2.765 0 0 0 2.394-3.066c-.038-.433-.26-3.689 1.24-7.729 2.143-5.733 6.617-10.326 13.3-13.645M29.173 4.4s-4.15 5.178-9.608 5.477C14.107 10.175 9.422 5.49 9.422 5.49S13.577.312 19.03.014C24.484-.285 29.173 4.4 29.173 4.4Z"/></g><path fill="#EB1537" d="M51.574 38.605v-.083c0-6.334 5.053-11.468 11.86-11.468 6.765 0 11.778 5.056 11.778 11.387v.082c0 6.33-5.054 11.47-11.86 11.47-6.766 0-11.778-5.058-11.778-11.388Zm17.524 0v-.083a5.902 5.902 0 0 0-.37-2.297 5.863 5.863 0 0 0-1.228-1.971 5.765 5.765 0 0 0-4.15-1.815c-3.544 0-5.665 2.754-5.665 6v.084c-.03.783.096 1.564.37 2.297a5.861 5.861 0 0 0 1.228 1.97 5.802 5.802 0 0 0 1.892 1.333c.713.312 1.481.476 2.258.483 3.546.004 5.665-2.753 5.665-6.001ZM77.919 23.946a3.14 3.14 0 0 1 .968-2.093 3.088 3.088 0 0 1 2.13-.853c.79 0 1.552.305 2.128.853.576.547.922 1.296.969 2.093v22.816a3.141 3.141 0 0 1-.97 2.093 3.088 3.088 0 0 1-2.128.853 3.088 3.088 0 0 1-2.129-.853 3.14 3.14 0 0 1-.968-2.093V23.946ZM86.833 38.605v-.083a11.398 11.398 0 0 1 .83-4.433 11.32 11.32 0 0 1 2.482-3.753 11.208 11.208 0 0 1 3.739-2.476 11.13 11.13 0 0 1 4.4-.806c2.704-.137 5.361.741 7.459 2.466a2.785 2.785 0 0 1 .978 2.137c-.002.37-.076.737-.218 1.078a2.792 2.792 0 0 1-2.594 1.718 2.9 2.9 0 0 1-1.793-.617 5.875 5.875 0 0 0-3.87-1.4c-3.098 0-5.299 2.755-5.299 6.002v.083c0 3.37 2.16 6.084 5.543 6.084a6.246 6.246 0 0 0 4.076-1.522 2.867 2.867 0 0 1 1.671-.575c.533.003 1.052.17 1.489.479.437.308.77.743.956 1.247a2.67 2.67 0 0 1-.734 2.919 10.721 10.721 0 0 1-3.591 2.196c-1.329.487-2.74.704-4.152.64-1.494.03-2.98-.244-4.367-.804a11.146 11.146 0 0 1-3.71-2.459 11.259 11.259 0 0 1-2.465-3.723 11.336 11.336 0 0 1-.83-4.398ZM109.918 23.946a3.143 3.143 0 0 1 .969-2.093 3.086 3.086 0 0 1 4.257 0c.576.547.923 1.296.969 2.093v7.735c1.426-1.74 3.26-3.326 6.398-3.326 4.687 0 7.418 2.939 7.418 7.697v10.71a3.143 3.143 0 0 1-.969 2.093 3.086 3.086 0 0 1-4.257 0 3.139 3.139 0 0 1-.969-2.093v-8.854c0-2.785-1.386-4.216-3.75-4.216s-3.872 1.431-3.872 4.216v8.854a3.139 3.139 0 0 1-.969 2.093 3.086 3.086 0 0 1-4.257 0 3.143 3.143 0 0 1-.969-2.093l.001-22.816ZM132.76 43.168v-.083c0-4.81 3.627-7.03 8.803-7.03a15.4 15.4 0 0 1 5.337.905v-.37c0-2.59-1.59-4.029-4.687-4.029a14.089 14.089 0 0 0-4.279.617c-.287.108-.59.164-.897.166a2.505 2.505 0 0 1-1.814-.731 2.545 2.545 0 0 1-.753-1.818 2.6 2.6 0 0 1 .459-1.477 2.571 2.571 0 0 1 1.212-.949 18.866 18.866 0 0 1 6.969-1.151c3.383 0 5.829.904 7.376 2.466 1.631 1.645 2.364 4.07 2.364 7.03v10.03a3.02 3.02 0 0 1-.884 2.135 2.976 2.976 0 0 1-2.129.865 2.747 2.747 0 0 1-2.02-.672 2.811 2.811 0 0 1-.955-1.918v-.041a8.402 8.402 0 0 1-2.991 2.142 8.333 8.333 0 0 1-3.611.653c-4.118.002-7.5-2.383-7.5-6.74Zm14.224-1.439v-1.11a9.54 9.54 0 0 0-3.954-.822c-2.649 0-4.279 1.07-4.279 3.042v.083c0 1.685 1.386 2.671 3.383 2.671 2.893 0 4.85-1.603 4.85-3.864ZM159.196 42.675a3.406 3.406 0 0 1 2.513.983 3.472 3.472 0 0 1 1.033 2.51v.084a3.596 3.596 0 0 1-1.071 2.468 3.53 3.53 0 0 1-4.95 0 3.592 3.592 0 0 1-1.071-2.468v-.083a3.475 3.475 0 0 1 1.033-2.511 3.404 3.404 0 0 1 2.513-.983ZM185.566 46.621c0 .829-.327 1.623-.907 2.21a3.085 3.085 0 0 1-2.191.914c-.821 0-1.609-.329-2.19-.915a3.137 3.137 0 0 1-.907-2.209v-.248c-1.426 1.85-3.26 3.535-6.398 3.535-4.687 0-7.418-3.124-7.418-8.18V30.34c0-.829.327-1.623.907-2.21a3.086 3.086 0 0 1 2.191-.914c.821 0 1.609.329 2.19.915.581.586.907 1.38.907 2.209v9.416c0 2.96 1.386 4.48 3.75 4.48s3.872-1.521 3.872-4.48v-9.414c0-.83.326-1.624.907-2.21a3.081 3.081 0 0 1 4.38 0c.581.586.908 1.38.908 2.21l-.001 16.278ZM188.092 46.991v-.123a4.103 4.103 0 0 1 1.386-3.042l10.148-11.304h-8.641a2.49 2.49 0 0 1-1.779-.725 2.549 2.549 0 0 1-.748-1.782 2.577 2.577 0 0 1 .744-1.8 2.528 2.528 0 0 1 1.783-.75h13.572c1.752 0 3.015 1.028 3.015 2.508v.123a4.104 4.104 0 0 1-1.386 3.042l-10.187 11.304h9.048c.669.004 1.31.273 1.783.75.473.478.741 1.124.744 1.8a2.55 2.55 0 0 1-.748 1.782 2.508 2.508 0 0 1-1.779.725h-13.939c-1.752 0-3.016-1.028-3.016-2.508Z"/><defs><clipPath id="a"><path fill="#fff" d="M0 0h36.574v50H0z"/></clipPath></defs></svg>