<svg xmlns="http://www.w3.org/2000/svg" width="130" height="24" fill="none"><g fill="#EB1537" clip-path="url(#a)"><path d="M0 14.445v-.068c0-5.197 4.211-9.41 9.883-9.41 5.638 0 9.815 4.149 9.815 9.343v.068c0 5.194-4.211 9.41-9.883 9.41C4.177 23.79 0 19.639 0 14.445Zm14.604 0v-.068a4.775 4.775 0 0 0-1.332-3.502 4.836 4.836 0 0 0-3.458-1.49c-2.954 0-4.72 2.26-4.72 4.925v.068a4.773 4.773 0 0 0 1.33 3.502 4.838 4.838 0 0 0 3.459 1.49c2.955.002 4.72-2.26 4.72-4.925ZM21.954 2.417A2.56 2.56 0 0 1 22.761.7a2.595 2.595 0 0 1 3.548 0c.48.449.769 1.063.807 1.717v18.72a2.56 2.56 0 0 1-.807 1.718 2.595 2.595 0 0 1-3.548 0 2.56 2.56 0 0 1-.807-1.717V2.418ZM29.383 14.445v-.068a9.226 9.226 0 0 1 .692-3.637 9.278 9.278 0 0 1 2.068-3.08 9.351 9.351 0 0 1 3.115-2.032 9.404 9.404 0 0 1 3.668-.66A9.152 9.152 0 0 1 45.14 6.99a2.273 2.273 0 0 1 .633 2.638 2.303 2.303 0 0 1-1.269 1.241 2.33 2.33 0 0 1-.892.168 2.44 2.44 0 0 1-1.495-.506 4.94 4.94 0 0 0-3.225-1.148c-2.58 0-4.415 2.26-4.415 4.924v.068c0 2.766 1.8 4.992 4.619 4.992a5.252 5.252 0 0 0 3.396-1.248c.403-.299.89-.464 1.393-.473.444.003.877.14 1.24.393a2.16 2.16 0 0 1 .185 3.418 8.968 8.968 0 0 1-2.992 1.803 9.01 9.01 0 0 1-3.46.525 9.351 9.351 0 0 1-3.638-.66 9.301 9.301 0 0 1-3.092-2.018 9.23 9.23 0 0 1-2.054-3.054 9.178 9.178 0 0 1-.692-3.61ZM48.62 2.417A2.56 2.56 0 0 1 49.428.7a2.595 2.595 0 0 1 3.548 0c.48.449.768 1.063.807 1.717v6.347c1.188-1.427 2.717-2.73 5.332-2.73 3.905 0 6.181 2.412 6.181 6.316v8.788a2.56 2.56 0 0 1-.807 1.717 2.595 2.595 0 0 1-3.548 0 2.56 2.56 0 0 1-.807-1.717v-7.265c0-2.285-1.155-3.459-3.125-3.459s-3.227 1.174-3.227 3.46v7.264a2.56 2.56 0 0 1-.807 1.717 2.595 2.595 0 0 1-3.548 0 2.56 2.56 0 0 1-.807-1.717V2.418ZM67.655 18.189v-.068c0-3.947 3.023-5.768 7.336-5.768 1.515-.013 3.02.238 4.447.742v-.303c0-2.125-1.324-3.306-3.905-3.306a11.913 11.913 0 0 0-3.566.506c-.24.088-.492.134-.747.136a2.113 2.113 0 0 1-1.512-.6 2.084 2.084 0 0 1-.628-1.491c0-.434.134-.856.383-1.212a2.139 2.139 0 0 1 1.01-.779c1.86-.672 3.829-.992 5.807-.944 2.82 0 4.858.742 6.147 2.023 1.359 1.35 1.97 3.34 1.97 5.768v8.23a2.444 2.444 0 0 1-.737 1.752 2.487 2.487 0 0 1-1.773.71 2.325 2.325 0 0 1-1.685-.551 2.298 2.298 0 0 1-.795-1.574v-.034a7 7 0 0 1-2.492 1.758 7.042 7.042 0 0 1-3.01.535c-3.431.002-6.25-1.955-6.25-5.53Zm11.853-1.18v-.91a8.053 8.053 0 0 0-3.294-.676c-2.207 0-3.566.878-3.566 2.496v.068c0 1.383 1.155 2.192 2.819 2.192 2.41 0 4.041-1.315 4.041-3.17ZM89.685 17.785a2.877 2.877 0 0 1 2.094.806 2.841 2.841 0 0 1 .86 2.06v.068a2.93 2.93 0 0 1-.891 2.026 2.969 2.969 0 0 1-4.126 0 2.926 2.926 0 0 1-.892-2.026v-.068a2.836 2.836 0 0 1 1.825-2.676c.36-.139.744-.203 1.13-.19ZM111.66 21.022c0 .68-.273 1.332-.756 1.813a2.591 2.591 0 0 1-3.651 0 2.554 2.554 0 0 1-.756-1.813v-.204c-1.188 1.518-2.716 2.901-5.331 2.901-3.906 0-6.182-2.563-6.182-6.712V7.664c0-.68.273-1.332.756-1.812a2.591 2.591 0 0 1 3.65 0c.485.48.757 1.132.757 1.812v7.726c0 2.428 1.155 3.676 3.125 3.676s3.226-1.248 3.226-3.676V7.666c0-.68.272-1.332.756-1.813a2.59 2.59 0 0 1 3.65 0c.484.48.757 1.133.757 1.813l-.001 13.356ZM113.765 21.326v-.101a3.362 3.362 0 0 1 1.155-2.496l8.457-9.275h-7.201a2.105 2.105 0 0 1-1.483-.595 2.078 2.078 0 0 1-.623-1.462 2.097 2.097 0 0 1 .62-1.476 2.122 2.122 0 0 1 1.486-.616h11.31c1.46 0 2.512.843 2.512 2.058v.1a3.346 3.346 0 0 1-1.155 2.497l-8.489 9.275h7.54a2.122 2.122 0 0 1 1.486.615c.394.392.618.922.62 1.476a2.06 2.06 0 0 1-.623 1.462 2.099 2.099 0 0 1-1.483.596h-11.616c-1.46 0-2.513-.844-2.513-2.058Z"/></g><defs><clipPath id="a"><path fill="#fff" d="M0 0h130v24H0z"/></clipPath></defs></svg>