<svg xmlns="http://www.w3.org/2000/svg" width="20" height="20" fill="none"><path fill="#0E0E2C" d="M17.917 12.5a2.501 2.501 0 0 0-1.584-2.317l1.559-5.833a.834.834 0 0 0-.15-.725.833.833 0 0 0-.659-.292H5.667l-.275-1.05a.833.833 0 0 0-.809-.616H2.917v1.666h1.025l2.066 7.717a.833.833 0 0 0 .834.617h8.575a.834.834 0 0 1 0 1.666H4.583a.833.833 0 1 0 0 1.667h.984a2.5 2.5 0 1 0 4.7 0h1.966a2.502 2.502 0 0 0 3.01 3.264 2.5 2.5 0 0 0 1.507-3.656 2.5 2.5 0 0 0 1.167-2.108ZM14.658 10H7.5L6.117 5H16l-1.342 5Zm-6.741 6.667a.833.833 0 1 1 0-1.667.833.833 0 0 1 0 1.667Zm6.666 0a.833.833 0 1 1 0-1.667.833.833 0 0 1 0 1.667Z"/></svg>